<svg width="16" height="16" viewBox="0 0 16 16" fill="none" xmlns="http://www.w3.org/2000/svg">
<path d="M1.5 16C1.08333 16 0.729167 15.8542 0.4375 15.5625C0.145833 15.2708 0 14.9167 0 14.5C0 14.0833 0.145833 13.7292 0.4375 13.4375C0.729167 13.1458 1.08333 13 1.5 13C1.91667 13 2.27083 13.1458 2.5625 13.4375C2.85417 13.7292 3 14.0833 3 14.5C3 14.9167 2.85417 15.2708 2.5625 15.5625C2.27083 15.8542 1.91667 16 1.5 16ZM5.825 16C5.40833 16 5.05417 15.8542 4.7625 15.5625C4.47083 15.2708 4.325 14.9167 4.325 14.5C4.325 14.0833 4.47083 13.7292 4.7625 13.4375C5.05417 13.1458 5.40833 13 5.825 13C6.24167 13 6.59583 13.1458 6.8875 13.4375C7.17917 13.7292 7.325 14.0833 7.325 14.5C7.325 14.9167 7.17917 15.2708 6.8875 15.5625C6.59583 15.8542 6.24167 16 5.825 16ZM10.175 16C9.75833 16 9.40417 15.8542 9.1125 15.5625C8.82083 15.2708 8.675 14.9167 8.675 14.5C8.675 14.0833 8.82083 13.7292 9.1125 13.4375C9.40417 13.1458 9.75833 13 10.175 13C10.5917 13 10.9458 13.1458 11.2375 13.4375C11.5292 13.7292 11.675 14.0833 11.675 14.5C11.675 14.9167 11.5292 15.2708 11.2375 15.5625C10.9458 15.8542 10.5917 16 10.175 16ZM14.5 16C14.0833 16 13.7292 15.8542 13.4375 15.5625C13.1458 15.2708 13 14.9167 13 14.5C13 14.0833 13.1458 13.7292 13.4375 13.4375C13.7292 13.1458 14.0833 13 14.5 13C14.9167 13 15.2708 13.1458 15.5625 13.4375C15.8542 13.7292 16 14.0833 16 14.5C16 14.9167 15.8542 15.2708 15.5625 15.5625C15.2708 15.8542 14.9167 16 14.5 16ZM1.5 11.675C1.08333 11.675 0.729167 11.5292 0.4375 11.2375C0.145833 10.9458 0 10.5917 0 10.175C0 9.75833 0.145833 9.40417 0.4375 9.1125C0.729167 8.82083 1.08333 8.675 1.5 8.675C1.91667 8.675 2.27083 8.82083 2.5625 9.1125C2.85417 9.40417 3 9.75833 3 10.175C3 10.5917 2.85417 10.9458 2.5625 11.2375C2.27083 11.5292 1.91667 11.675 1.5 11.675ZM5.825 11.675C5.40833 11.675 5.05417 11.5292 4.7625 11.2375C4.47083 10.9458 4.325 10.5917 4.325 10.175C4.325 9.75833 4.47083 9.40417 4.7625 9.1125C5.05417 8.82083 5.40833 8.675 5.825 8.675C6.24167 8.675 6.59583 8.82083 6.8875 9.1125C7.17917 9.40417 7.325 9.75833 7.325 10.175C7.325 10.5917 7.17917 10.9458 6.8875 11.2375C6.59583 11.5292 6.24167 11.675 5.825 11.675ZM10.175 11.675C9.75833 11.675 9.40417 11.5292 9.1125 11.2375C8.82083 10.9458 8.675 10.5917 8.675 10.175C8.675 9.75833 8.82083 9.40417 9.1125 9.1125C9.40417 8.82083 9.75833 8.675 10.175 8.675C10.5917 8.675 10.9458 8.82083 11.2375 9.1125C11.5292 9.40417 11.675 9.75833 11.675 10.175C11.675 10.5917 11.5292 10.9458 11.2375 11.2375C10.9458 11.5292 10.5917 11.675 10.175 11.675ZM14.5 11.675C14.0833 11.675 13.7292 11.5292 13.4375 11.2375C13.1458 10.9458 13 10.5917 13 10.175C13 9.75833 13.1458 9.40417 13.4375 9.1125C13.7292 8.82083 14.0833 8.675 14.5 8.675C14.9167 8.675 15.2708 8.82083 15.5625 9.1125C15.8542 9.40417 16 9.75833 16 10.175C16 10.5917 15.8542 10.9458 15.5625 11.2375C15.2708 11.5292 14.9167 11.675 14.5 11.675ZM1.5 7.325C1.08333 7.325 0.729167 7.17917 0.4375 6.8875C0.145833 6.59583 0 6.24167 0 5.825C0 5.40833 0.145833 5.05417 0.4375 4.7625C0.729167 4.47083 1.08333 4.325 1.5 4.325C1.91667 4.325 2.27083 4.47083 2.5625 4.7625C2.85417 5.05417 3 5.40833 3 5.825C3 6.24167 2.85417 6.59583 2.5625 6.8875C2.27083 7.17917 1.91667 7.325 1.5 7.325ZM5.825 7.325C5.40833 7.325 5.05417 7.17917 4.7625 6.8875C4.47083 6.59583 4.325 6.24167 4.325 5.825C4.325 5.40833 4.47083 5.05417 4.7625 4.7625C5.05417 4.47083 5.40833 4.325 5.825 4.325C6.24167 4.325 6.59583 4.47083 6.8875 4.7625C7.17917 5.05417 7.325 5.40833 7.325 5.825C7.325 6.24167 7.17917 6.59583 6.8875 6.8875C6.59583 7.17917 6.24167 7.325 5.825 7.325ZM10.175 7.325C9.75833 7.325 9.40417 7.17917 9.1125 6.8875C8.82083 6.59583 8.675 6.24167 8.675 5.825C8.675 5.40833 8.82083 5.05417 9.1125 4.7625C9.40417 4.47083 9.75833 4.325 10.175 4.325C10.5917 4.325 10.9458 4.47083 11.2375 4.7625C11.5292 5.05417 11.675 5.40833 11.675 5.825C11.675 6.24167 11.5292 6.59583 11.2375 6.8875C10.9458 7.17917 10.5917 7.325 10.175 7.325ZM14.5 7.325C14.0833 7.325 13.7292 7.17917 13.4375 6.8875C13.1458 6.59583 13 6.24167 13 5.825C13 5.40833 13.1458 5.05417 13.4375 4.7625C13.7292 4.47083 14.0833 4.325 14.5 4.325C14.9167 4.325 15.2708 4.47083 15.5625 4.7625C15.8542 5.05417 16 5.40833 16 5.825C16 6.24167 15.8542 6.59583 15.5625 6.8875C15.2708 7.17917 14.9167 7.325 14.5 7.325ZM1.5 3C1.08333 3 0.729167 2.85417 0.4375 2.5625C0.145833 2.27083 0 1.91667 0 1.5C0 1.08333 0.145833 0.729167 0.4375 0.4375C0.729167 0.145833 1.08333 0 1.5 0C1.91667 0 2.27083 0.145833 2.5625 0.4375C2.85417 0.729167 3 1.08333 3 1.5C3 1.91667 2.85417 2.27083 2.5625 2.5625C2.27083 2.85417 1.91667 3 1.5 3ZM5.825 3C5.40833 3 5.05417 2.85417 4.7625 2.5625C4.47083 2.27083 4.325 1.91667 4.325 1.5C4.325 1.08333 4.47083 0.729167 4.7625 0.4375C5.05417 0.145833 5.40833 0 5.825 0C6.24167 0 6.59583 0.145833 6.8875 0.4375C7.17917 0.729167 7.325 1.08333 7.325 1.5C7.325 1.91667 7.17917 2.27083 6.8875 2.5625C6.59583 2.85417 6.24167 3 5.825 3ZM10.175 3C9.75833 3 9.40417 2.85417 9.1125 2.5625C8.82083 2.27083 8.675 1.91667 8.675 1.5C8.675 1.08333 8.82083 0.729167 9.1125 0.4375C9.40417 0.145833 9.75833 0 10.175 0C10.5917 0 10.9458 0.145833 11.2375 0.4375C11.5292 0.729167 11.675 1.08333 11.675 1.5C11.675 1.91667 11.5292 2.27083 11.2375 2.5625C10.9458 2.85417 10.5917 3 10.175 3ZM14.5 3C14.0833 3 13.7292 2.85417 13.4375 2.5625C13.1458 2.27083 13 1.91667 13 1.5C13 1.08333 13.1458 0.729167 13.4375 0.4375C13.7292 0.145833 14.0833 0 14.5 0C14.9167 0 15.2708 0.145833 15.5625 0.4375C15.8542 0.729167 16 1.08333 16 1.5C16 1.91667 15.8542 2.27083 15.5625 2.5625C15.2708 2.85417 14.9167 3 14.5 3Z" fill="#192739" fill-opacity="0.94"/>
</svg>
