<svg width="20" height="18" viewBox="0 0 20 18" fill="none" xmlns="http://www.w3.org/2000/svg">
<path d="M14 18C13.45 18 12.9792 17.8042 12.5875 17.4125C12.1958 17.0208 12 16.55 12 16V12C12 11.45 12.1958 10.9792 12.5875 10.5875C12.9792 10.1958 13.45 10 14 10H18C18.55 10 19.0208 10.1958 19.4125 10.5875C19.8042 10.9792 20 11.45 20 12V16C20 16.55 19.8042 17.0208 19.4125 17.4125C19.0208 17.8042 18.55 18 18 18H14ZM14 16H18V12H14V16ZM1 15C0.716667 15 0.479167 14.9042 0.2875 14.7125C0.0958333 14.5208 0 14.2833 0 14C0 13.7167 0.0958333 13.4792 0.2875 13.2875C0.479167 13.0958 0.716667 13 1 13H8C8.28333 13 8.52083 13.0958 8.7125 13.2875C8.90417 13.4792 9 13.7167 9 14C9 14.2833 8.90417 14.5208 8.7125 14.7125C8.52083 14.9042 8.28333 15 8 15H1ZM14 8C13.45 8 12.9792 7.80417 12.5875 7.4125C12.1958 7.02083 12 6.55 12 6V2C12 1.45 12.1958 0.979167 12.5875 0.5875C12.9792 0.195833 13.45 0 14 0H18C18.55 0 19.0208 0.195833 19.4125 0.5875C19.8042 0.979167 20 1.45 20 2V6C20 6.55 19.8042 7.02083 19.4125 7.4125C19.0208 7.80417 18.55 8 18 8H14ZM14 6H18V2H14V6ZM1 5C0.716667 5 0.479167 4.90417 0.2875 4.7125C0.0958333 4.52083 0 4.28333 0 4C0 3.71667 0.0958333 3.47917 0.2875 3.2875C0.479167 3.09583 0.716667 3 1 3H8C8.28333 3 8.52083 3.09583 8.7125 3.2875C8.90417 3.47917 9 3.71667 9 4C9 4.28333 8.90417 4.52083 8.7125 4.7125C8.52083 4.90417 8.28333 5 8 5H1Z" fill="#1C304A" fill-opacity="0.52"/>
</svg>
